<?xml version="1.0" encoding="utf-8"?>
<!-- Generator: Adobe Illustrator 20.0.0, SVG Export Plug-In . SVG Version: 6.00 Build 0)  -->
<svg version="1.1" id="Layer_1" xmlns="http://www.w3.org/2000/svg" xmlns:xlink="http://www.w3.org/1999/xlink" x="0px" y="0px"
	 viewBox="0 0 22 13" style="enable-background:new 0 0 22 13;" xml:space="preserve">
<style type="text/css">
	.st0{fill-rule:evenodd;clip-rule:evenodd;fill:#F5B756;}
	.st1{fill:#F5B756;}
	.st2{fill-rule:evenodd;clip-rule:evenodd;fill:#FFFFFF;}
	.st3{fill:#FFFFFF;}
	.st4{fill-rule:evenodd;clip-rule:evenodd;fill:#777777;}
	.st5{fill-rule:evenodd;clip-rule:evenodd;fill:#555555;}
	.st6{fill-rule:evenodd;clip-rule:evenodd;fill:#CCCCCC;}
	.st7{fill-rule:evenodd;clip-rule:evenodd;fill:#36D900;}
	.st8{fill-rule:evenodd;clip-rule:evenodd;fill:#888888;}
	.st9{fill-rule:evenodd;clip-rule:evenodd;}
</style>
<path class="st6" d="M0.3,5.9l5.7-5.6c0.3-0.3,0.9-0.3,1.3,0c0.4,0.4,0.4,0.9,0,1.2L3,5.6h18.1C21.6,5.6,22,6,22,6.5
	s-0.4,0.9-0.9,0.9H3l4.1,4.1c0.4,0.3,0.4,0.9,0,1.2C7,12.9,6.8,13,6.6,13c-0.2,0-0.5-0.1-0.6-0.3L0.3,7.1C-0.1,6.8-0.1,6.2,0.3,5.9z
	"/>
</svg>
