<?xml version="1.0" encoding="utf-8"?>
<!-- Generator: Adobe Illustrator 20.0.0, SVG Export Plug-In . SVG Version: 6.00 Build 0)  -->
<svg version="1.1" id="Layer_1" xmlns="http://www.w3.org/2000/svg" xmlns:xlink="http://www.w3.org/1999/xlink" x="0px" y="0px"
	 viewBox="0 0 18 17" style="enable-background:new 0 0 18 17;" xml:space="preserve">
<style type="text/css">
	.st0{fill-rule:evenodd;clip-rule:evenodd;fill:#F5B756;}
	.st1{fill:#F5B756;}
	.st2{fill-rule:evenodd;clip-rule:evenodd;fill:#FFFFFF;}
	.st3{fill:#FFFFFF;}
	.st4{fill-rule:evenodd;clip-rule:evenodd;fill:#777777;}
	.st5{fill-rule:evenodd;clip-rule:evenodd;fill:#555555;}
	.st6{fill-rule:evenodd;clip-rule:evenodd;fill:#CCCCCC;}
	.st7{fill-rule:evenodd;clip-rule:evenodd;fill:#36D900;}
	.st8{fill-rule:evenodd;clip-rule:evenodd;fill:#888888;}
	.st9{fill-rule:evenodd;clip-rule:evenodd;}
</style>
<g>
	<path class="st9" d="M15.6,14.3c-0.1,0.1-0.3,0.3-0.5,0.4c-0.2,0.2-0.5,0.4-0.7,0.7C14,15.8,13.6,16,13,16h-0.2
		c-1.1-0.1-2.2-0.5-3-0.8c-2.2-1-4-2.4-5.6-4.1C2.9,9.6,2,8.2,1.5,6.7C1.1,5.8,1,5.1,1,4.5c0-0.4,0.2-0.8,0.5-1.1l1.3-1.2
		C3,2,3.2,1.9,3.4,1.9c0.2,0,0.4,0.1,0.6,0.3l0,0c0.2,0.2,0.4,0.4,0.7,0.6l0.4,0.3l1,1c0.4,0.4,0.4,0.7,0,1.1L5.8,5.6
		c-0.3,0.3-0.6,0.6-1,0.9l0,0C4.5,6.8,4.5,7.1,4.6,7.3l0,0C4.9,8,5.3,8.5,5.8,9.2c1.1,1.2,2.2,2.2,3.4,2.9c0.2,0.1,0.3,0.2,0.5,0.2
		c0.1,0.1,0.3,0.1,0.4,0.2l0.1,0c0.1,0.1,0.2,0.1,0.4,0.1c0.3,0,0.5-0.2,0.6-0.2l1.3-1.2c0.1-0.1,0.3-0.3,0.6-0.3s0.4,0.1,0.6,0.3
		l2.1,2C16,13.5,16,13.9,15.6,14.3z M14.2,10.5c-0.4-0.4-0.8-0.6-1.3-0.6s-0.9,0.2-1.3,0.6l-1.2,1.1l-0.3-0.1
		c-0.1-0.1-0.3-0.1-0.4-0.2c-1.1-0.7-2.1-1.6-3.1-2.7c-0.5-0.6-0.8-1-1-1.5c0.3-0.3,0.6-0.5,0.9-0.8L6.8,6c0.8-0.8,0.8-1.7,0-2.5
		l-1-1L5.4,2.2C5.2,2,5,1.7,4.7,1.5C4.3,1.2,3.9,1,3.4,1C3,1,2.5,1.2,2.1,1.5l0,0L0.8,2.7C0.3,3.2,0.1,3.8,0,4.4
		c-0.1,1,0.2,2,0.5,2.7c0.6,1.6,1.5,3,2.9,4.6c1.7,1.9,3.7,3.4,6,4.4c0.9,0.4,2.1,0.9,3.3,0.9l0.2,0c0.9,0,1.6-0.3,2.2-0.9l0,0
		c0.2-0.2,0.4-0.4,0.7-0.7c0.2-0.1,0.3-0.3,0.5-0.5c0.4-0.4,0.6-0.8,0.6-1.2c0-0.4-0.2-0.9-0.6-1.2L14.2,10.5z"/>
	<path class="st9" d="M9.7,4c1,0.2,1.9,0.6,2.6,1.3c0.7,0.7,1.2,1.5,1.4,2.5c0,0.2,0.2,0.4,0.5,0.4l0.1,0c0.3,0,0.5-0.3,0.4-0.6
		c-0.2-1.1-0.8-2.2-1.6-3c-0.9-0.8-2-1.4-3.2-1.5C9.6,3,9.4,3.2,9.3,3.5C9.3,3.7,9.4,4,9.7,4z"/>
	<path class="st9" d="M18,7.5c-0.3-1.9-1.3-3.6-2.7-4.9C13.8,1.2,12,0.3,10,0C9.8,0,9.5,0.1,9.5,0.4C9.4,0.7,9.6,0.9,9.9,1
		c1.8,0.3,3.4,1.1,4.7,2.3C15.8,4.5,16.7,6,17,7.7c0,0.2,0.3,0.4,0.5,0.4l0.1,0C17.8,8,18,7.8,18,7.5z"/>
</g>
</svg>
