<?xml version="1.0" encoding="utf-8"?>
<!-- Generator: Adobe Illustrator 20.0.0, SVG Export Plug-In . SVG Version: 6.00 Build 0)  -->
<svg version="1.1" id="Layer_1" xmlns="http://www.w3.org/2000/svg" xmlns:xlink="http://www.w3.org/1999/xlink" x="0px" y="0px"
	 viewBox="0 0 212 15" style="enable-background:new 0 0 212 15;" xml:space="preserve">
<style type="text/css">
	.st0{fill-rule:evenodd;clip-rule:evenodd;fill:#F5B756;}
	.st1{fill:#F5B756;}
	.st2{fill-rule:evenodd;clip-rule:evenodd;fill:#FFFFFF;}
	.st3{fill:#FFFFFF;}
	.st4{fill-rule:evenodd;clip-rule:evenodd;fill:#777777;}
	.st5{fill-rule:evenodd;clip-rule:evenodd;fill:#555555;}
	.st6{fill-rule:evenodd;clip-rule:evenodd;fill:#CCCCCC;}
	.st7{fill-rule:evenodd;clip-rule:evenodd;fill:#36D900;}
	.st8{fill-rule:evenodd;clip-rule:evenodd;fill:#888888;}
	.st9{fill-rule:evenodd;clip-rule:evenodd;}
</style>
<g>
	<path class="st2" d="M36.2,9.5c-0.2,0.6-0.5,1-1,1.4c-0.4,0.3-1,0.6-1.8,0.7c-0.7,0.1-1.6,0.2-2.6,0.2h-1.7c-1.1,0-2-0.1-2.7-0.2
		c-0.7-0.2-1.3-0.4-1.8-0.7c-0.5-0.3-0.8-0.8-1-1.4c-0.2-0.5-0.3-1.2-0.3-2.1c0-1.6,0.5-2.7,1.3-3.4c0.9-0.6,2.3-0.9,4.4-0.9h1.6
		c2.1,0,3.5,0.3,4.4,0.9c0.5,0.3,0.8,0.8,1,1.4c0.2,0.5,0.3,1.2,0.3,2C36.5,8.2,36.4,8.9,36.2,9.5z M36.9,1.1
		c-0.7-0.4-1.5-0.7-2.4-0.9C33.6,0.1,32.4,0,31,0h-2.2c-1.4,0-2.6,0.1-3.5,0.3c-0.9,0.2-1.7,0.5-2.3,0.9l-0.1,0.1
		c-1,0.6-1.8,1.5-2.3,2.6c-0.6,1.1-0.9,2.3-0.9,3.6c0,1.4,0.3,2.6,0.9,3.7s1.4,2,2.4,2.6c0.6,0.4,1.4,0.7,2.4,0.9
		c0.9,0.2,2.1,0.3,3.5,0.3H31c1.4,0,2.6-0.1,3.5-0.3c0.9-0.2,1.7-0.5,2.3-0.9c1-0.6,1.8-1.6,2.4-2.6c0.6-1.1,0.8-2.4,0.8-3.7
		c0-1.3-0.3-2.5-0.8-3.6C38.8,2.7,37.9,1.8,36.9,1.1z"/>
	<path class="st2" d="M76.4,11.8c-1.1,0-2-0.1-2.7-0.2c-0.7-0.2-1.3-0.4-1.8-0.7c-0.5-0.3-0.8-0.8-1-1.4c-0.2-0.5-0.3-1.2-0.3-2.1
		c0-1.6,0.5-2.7,1.3-3.4c0.9-0.6,2.3-0.9,4.4-0.9h1.6c2.1,0,3.5,0.3,4.4,0.9c0.5,0.3,0.8,0.8,1,1.4c0.2,0.5,0.3,1.2,0.3,2
		c0,0.8-0.1,1.5-0.3,2.1c-0.2,0.6-0.5,1-1,1.4c-0.4,0.3-1,0.6-1.8,0.7c-0.7,0.1-1.6,0.2-2.6,0.2H76.4z M81.9,14.6
		c0.9-0.2,1.7-0.5,2.3-0.9c1-0.6,1.8-1.6,2.4-2.6c0.6-1.1,0.8-2.4,0.8-3.7c0-1.3-0.3-2.5-0.8-3.6c-0.6-1.1-1.4-2-2.4-2.6
		c-0.7-0.4-1.5-0.7-2.4-0.9C81,0.1,79.8,0,78.4,0h-2.2c-1.4,0-2.6,0.1-3.5,0.3c-0.9,0.2-1.7,0.5-2.3,0.9l-0.1,0.1
		c-1,0.6-1.8,1.5-2.3,2.5C67.3,4.9,67,6.1,67,7.4c0,1.4,0.3,2.6,0.8,3.7c0.6,1.1,1.4,2,2.4,2.6c0.6,0.4,1.4,0.7,2.3,0.9
		c0.9,0.2,2.1,0.3,3.5,0.3h2.2C79.8,14.9,81,14.8,81.9,14.6z"/>
	<path class="st3" d="M0.6,15h14.6v-3.1H3.7L3.7,0H0v14.3c0,0.2,0.1,0.3,0.2,0.4C0.3,14.9,0.4,15,0.6,15z"/>
	<path class="st3" d="M62,3.1V0h-8.1c-1.4,0-2.6,0.1-3.5,0.3c-0.9,0.2-1.7,0.5-2.3,0.9L48,1.2c-1,0.6-1.8,1.5-2.3,2.6
		c-0.6,1.1-0.8,2.3-0.8,3.6c0,1.4,0.3,2.6,0.8,3.7c0.6,1.1,1.4,2,2.4,2.6c0.6,0.4,1.4,0.7,2.3,0.9c1,0.2,2.1,0.3,3.5,0.3H62v-3.1
		h-7.8c-1.1,0-2-0.1-2.7-0.2c-0.7-0.2-1.3-0.4-1.8-0.7c-0.4-0.4-0.8-0.8-1-1.4c-0.2-0.6-0.3-1.2-0.3-2.1c0-1.6,0.5-2.7,1.3-3.4
		c0.9-0.6,2.3-1,4.4-1H62z"/>
	<path class="st2" d="M154.5,8.1H144V7.6c0-0.8,0.1-1.5,0.3-2c0.2-0.5,0.5-1,1-1.3c0.4-0.4,1-0.6,1.7-0.8c0.7-0.2,1.6-0.2,2.6-0.2
		c0.9,0,1.6,0.1,2.2,0.3c0.6,0.2,1.1,0.5,1.5,0.8c0.7,0.7,1.1,1.8,1.1,3.2V8.1z M154.5,15l3.7,0l0,0V7.5c0-1.4-0.3-2.6-0.9-3.7
		c-0.6-1.1-1.4-2-2.4-2.6c-0.6-0.4-1.4-0.7-2.3-0.9c-0.9-0.2-2.1-0.3-3.5-0.3H149c-1.3,0-2.4,0.1-3.2,0.3c-0.8,0.2-1.6,0.5-2.2,0.9
		c-1,0.6-1.8,1.5-2.4,2.6c-0.6,1.1-0.8,2.4-0.9,3.7V15c0.1,0,0.3,0,0.4,0h3.3l0-3.5l0-0.2v-0.3l0.4-0.1h10.1v0.3c0,0.2,0,0.2,0,0.3
		l0,0.5h-0.1V15z"/>
	<polygon class="st3" points="186.2,15 189.9,15 189.9,11.5 189.9,11.2 189.9,0 186.2,0 186.2,3.5 186.2,3.8 	"/>
	<g>
		<path class="st3" d="M110.7,0h-8.5c-1.4,0-2.6,0.1-3.5,0.3c-0.9,0.2-1.7,0.5-2.3,0.9l-0.1,0.1c-1,0.6-1.8,1.5-2.3,2.6
			c-0.6,1.1-0.9,2.3-0.9,3.6c0,1.4,0.3,2.6,0.9,3.7s1.4,2,2.4,2.6c0.6,0.4,1.4,0.7,2.4,0.9c0.9,0.2,2.1,0.3,3.5,0.3h4.5
			c0.6,0,1.2-0.1,1.8-0.1c0.5-0.1,1-0.3,1.4-0.7c0.1-0.1,0.1-0.1,0.2-0.2c0.2-0.3,0.4-0.6,0.5-1.1c0.1-0.5,0.2-1,0.2-1.8V6.6
			c0-0.2-0.1-0.3-0.2-0.4C110.4,6,110.3,6,110.1,6H101v3l6,0v2.9h-4.5c-1.1,0-2-0.1-2.7-0.2c-0.7-0.2-1.3-0.4-1.8-0.7
			c-0.5-0.4-0.8-0.8-1-1.4c-0.2-0.6-0.3-1.2-0.3-2.1c0-1.6,0.5-2.8,1.4-3.4c0.9-0.6,2.3-1,4.4-1l8.2,0V0z"/>
	</g>
	<path class="st3" d="M209,14.6c0.6-0.2,1.1-0.6,1.5-1c0.4-0.4,0.8-0.9,1-1.4s0.4-1.1,0.4-1.7c0-0.6-0.1-1.2-0.4-1.7
		c-0.2-0.5-0.6-1-1-1.4c-0.4-0.4-0.9-0.7-1.5-1c-0.6-0.2-1.2-0.3-1.8-0.3H200c-0.4,0-0.8-0.2-1.1-0.4c-0.3-0.3-0.5-0.7-0.5-1.1
		c0-0.4,0.2-0.8,0.5-1.1c0.3-0.3,0.7-0.5,1.1-0.5h12V0h-12.2c-0.6,0-1.2,0.1-1.8,0.3c-0.6,0.2-1.1,0.6-1.5,1c-0.4,0.4-0.8,0.9-1,1.4
		c-0.2,0.5-0.4,1.1-0.4,1.7s0.1,1.2,0.4,1.7c0.2,0.5,0.6,1,1,1.4c0.4,0.4,0.9,0.7,1.5,1s1.2,0.4,1.8,0.4h7.2c0.4,0,0.8,0.1,1.1,0.4
		c0.3,0.3,0.5,0.6,0.5,1c0,0.4-0.1,0.8-0.5,1.1c-0.3,0.3-0.7,0.4-1.1,0.4L195,12v3h12.2C207.8,15,208.4,14.8,209,14.6z"/>
	<path class="st2" d="M121.6,6H121V3h0h3h5.7c0.4,0,0.8,0.2,1.1,0.5c0.3,0.3,0.5,0.7,0.5,1.1c0,0.4-0.2,0.8-0.5,1.1
		c-0.3,0.3-0.7,0.4-1.1,0.4L121.6,6z M129.7,9.1l0.7-0.1c0.6-0.1,1.2-0.2,1.7-0.4c0.5-0.2,1-0.6,1.4-1c0.4-0.4,0.7-0.9,0.9-1.4
		c0.2-0.5,0.3-1.1,0.3-1.7c0-0.6-0.1-1.2-0.4-1.7c-0.2-0.5-0.6-1-1-1.4c-0.4-0.4-0.9-0.7-1.5-1c-0.6-0.2-1.2-0.3-1.8-0.3H118
		c-0.2,0-0.3,0-0.4,0.2c-0.1,0.1-0.2,0.3-0.2,0.4v1.2V3v3v4.5V15h3.7v-3.5c0-0.1,0-0.2,0-0.3V9h4.1l6,5.9h4.6L129.7,9.1z"/>
	<path class="st3" d="M181,3.1V0h-16.7c0,0-0.6,0.1-0.6,0.6v1.2v1.3V6v1.1v2.6V15l0,0l0.1,0h3.5v-3.4l0-0.3V9.7h0V9h12.3V6h-12.3
		V3.1L181,3.1z"/>
</g>
</svg>
