<?xml version="1.0" encoding="utf-8"?>
<!-- Generator: Adobe Illustrator 20.0.0, SVG Export Plug-In . SVG Version: 6.00 Build 0)  -->
<svg version="1.1" id="Layer_1" xmlns="http://www.w3.org/2000/svg" xmlns:xlink="http://www.w3.org/1999/xlink" x="0px" y="0px"
	 viewBox="0 0 18 14" style="enable-background:new 0 0 18 14;" xml:space="preserve">
<style type="text/css">
	.st0{fill-rule:evenodd;clip-rule:evenodd;fill:#F5B756;}
	.st1{fill:#F5B756;}
	.st2{fill-rule:evenodd;clip-rule:evenodd;fill:#FFFFFF;}
	.st3{fill:#FFFFFF;}
	.st4{fill-rule:evenodd;clip-rule:evenodd;fill:#777777;}
	.st5{fill-rule:evenodd;clip-rule:evenodd;fill:#555555;}
	.st6{fill-rule:evenodd;clip-rule:evenodd;fill:#CCCCCC;}
	.st7{fill-rule:evenodd;clip-rule:evenodd;fill:#36D900;}
	.st8{fill-rule:evenodd;clip-rule:evenodd;fill:#888888;}
	.st9{fill-rule:evenodd;clip-rule:evenodd;}
</style>
<g>
	<g>
		<path class="st7" d="M0.2,7.7C0.1,7.6,0,7.3,0,7.2s0.1-0.3,0.2-0.5l1-1c0.3-0.3,0.7-0.3,1,0l0.1,0.1L6,9.9c0.1,0.1,0.3,0.1,0.5,0
			l9.3-9.7h0.1c0.3-0.3,0.7-0.3,1,0l1,1c0.3,0.3,0.3,0.7,0,1L6.7,13.8C6.6,13.9,6.4,14,6.2,14s-0.3-0.1-0.5-0.2L0.3,7.9L0.2,7.7z"/>
	</g>
</g>
</svg>
