<?xml version="1.0" encoding="utf-8"?>
<!-- Generator: Adobe Illustrator 20.0.0, SVG Export Plug-In . SVG Version: 6.00 Build 0)  -->
<svg version="1.1" id="Layer_1" xmlns="http://www.w3.org/2000/svg" xmlns:xlink="http://www.w3.org/1999/xlink" x="0px" y="0px"
	 viewBox="0 0 17 28" style="enable-background:new 0 0 17 28;" xml:space="preserve">
<style type="text/css">
	.st0{fill-rule:evenodd;clip-rule:evenodd;fill:#F5B756;}
	.st1{fill:#F5B756;}
	.st2{fill-rule:evenodd;clip-rule:evenodd;fill:#FFFFFF;}
	.st3{fill:#FFFFFF;}
	.st4{fill-rule:evenodd;clip-rule:evenodd;fill:#777777;}
	.st5{fill-rule:evenodd;clip-rule:evenodd;fill:#555555;}
	.st6{fill-rule:evenodd;clip-rule:evenodd;fill:#CCCCCC;}
	.st7{fill-rule:evenodd;clip-rule:evenodd;fill:#36D900;}
	.st8{fill-rule:evenodd;clip-rule:evenodd;fill:#888888;}
	.st9{fill-rule:evenodd;clip-rule:evenodd;}
</style>
<path class="st2" d="M9.3,27.7l7.3-7.2c0.5-0.4,0.5-1.2,0-1.6c-0.5-0.5-1.2-0.5-1.6,0l-5.4,5.3v-23C9.7,0.5,9.1,0,8.5,0
	S7.3,0.5,7.3,1.1v23L2,18.9c-0.5-0.5-1.2-0.5-1.6,0C0.1,19.1,0,19.4,0,19.7c0,0.3,0.1,0.6,0.3,0.8l7.3,7.2
	C8.1,28.1,8.9,28.1,9.3,27.7z"/>
</svg>
