<?xml version="1.0" encoding="utf-8"?>
<!-- Generator: Adobe Illustrator 20.0.0, SVG Export Plug-In . SVG Version: 6.00 Build 0)  -->
<svg version="1.1" id="Layer_1" xmlns="http://www.w3.org/2000/svg" xmlns:xlink="http://www.w3.org/1999/xlink" x="0px" y="0px"
	 viewBox="0 0 26.1 26" style="enable-background:new 0 0 26.1 26;" xml:space="preserve">
<style type="text/css">
	.st0{fill-rule:evenodd;clip-rule:evenodd;fill:#F5B756;}
	.st1{fill:#F5B756;}
	.st2{fill-rule:evenodd;clip-rule:evenodd;fill:#FFFFFF;}
	.st3{fill:#FFFFFF;}
	.st4{fill-rule:evenodd;clip-rule:evenodd;fill:#777777;}
	.st5{fill-rule:evenodd;clip-rule:evenodd;fill:#555555;}
	.st6{fill-rule:evenodd;clip-rule:evenodd;fill:#CCCCCC;}
	.st7{fill-rule:evenodd;clip-rule:evenodd;fill:#36D900;}
	.st8{fill-rule:evenodd;clip-rule:evenodd;fill:#888888;}
	.st9{fill-rule:evenodd;clip-rule:evenodd;}
</style>
<ellipse class="st2" cx="13.1" cy="13" rx="13.1" ry="13"/>
<path class="st4" d="M19,16c0,1.6-1.3,2.9-3,2.9h-6c-1.6,0-2.9-1.3-2.9-2.9v-6c0-1.6,1.3-2.9,2.9-2.9h6c1.6,0,3,1.3,3,2.9V16z
	 M16.1,5.6h-6c-2.5,0-4.4,2-4.4,4.4v6c0,2.4,2,4.4,4.4,4.4h6c2.5,0,4.5-2,4.5-4.4v-6C20.5,7.6,18.5,5.6,16.1,5.6z"/>
<path class="st4" d="M13.1,15.4c-1.3,0-2.4-1.1-2.4-2.4s1.1-2.4,2.4-2.4c1.3,0,2.4,1.1,2.4,2.4S14.4,15.4,13.1,15.4z M13.1,9.1
	c-2.1,0-3.9,1.7-3.9,3.9s1.7,3.9,3.9,3.9s3.9-1.7,3.9-3.9S15.2,9.1,13.1,9.1z"/>
<ellipse class="st4" cx="16.9" cy="9.2" rx="0.9" ry="0.9"/>
</svg>
