<?xml version="1.0" encoding="utf-8"?>
<!-- Generator: Adobe Illustrator 20.0.0, SVG Export Plug-In . SVG Version: 6.00 Build 0)  -->
<svg version="1.1" id="Layer_1" xmlns="http://www.w3.org/2000/svg" xmlns:xlink="http://www.w3.org/1999/xlink" x="0px" y="0px"
	 viewBox="0 0 14.9 14.9" style="enable-background:new 0 0 14.9 14.9;" xml:space="preserve">
<style type="text/css">
	.st0{fill-rule:evenodd;clip-rule:evenodd;fill:#F5B756;}
	.st1{fill:#F5B756;}
	.st2{fill-rule:evenodd;clip-rule:evenodd;fill:#FFFFFF;}
	.st3{fill:#FFFFFF;}
	.st4{fill-rule:evenodd;clip-rule:evenodd;fill:#777777;}
	.st5{fill-rule:evenodd;clip-rule:evenodd;fill:#555555;}
	.st6{fill-rule:evenodd;clip-rule:evenodd;fill:#CCCCCC;}
	.st7{fill-rule:evenodd;clip-rule:evenodd;fill:#36D900;}
	.st8{fill-rule:evenodd;clip-rule:evenodd;fill:#888888;}
	.st9{fill-rule:evenodd;clip-rule:evenodd;}
</style>
<g>
	<path class="st5" d="M13.4,10.4c0,1.6-1.3,2.9-2.9,2.9h-6c-1.6,0-2.9-1.3-2.9-2.9v-6c0-1.6,1.3-2.9,2.9-2.9h6
		c1.6,0,2.9,1.3,2.9,2.9V10.4z M10.5,0h-6C2,0,0,2,0,4.4v6c0,2.4,2,4.4,4.4,4.4h6c2.4,0,4.4-2,4.4-4.4v-6C14.9,2,12.9,0,10.5,0z"/>
	<path class="st5" d="M7.5,9.8c-1.3,0-2.4-1.1-2.4-2.3s1-2.3,2.4-2.3c1.3,0,2.4,1,2.4,2.3S8.8,9.8,7.5,9.8z M7.5,3.6
		c-2.1,0-3.9,1.7-3.9,3.9s1.7,3.8,3.9,3.8s3.9-1.7,3.9-3.8S9.6,3.6,7.5,3.6z"/>
	<ellipse class="st5" cx="11.3" cy="3.6" rx="0.9" ry="0.9"/>
</g>
</svg>
